<?xml version="1.0" encoding="UTF-8" standalone="no"?>
<svg
   xmlns:dc="http://purl.org/dc/elements/1.1/"
   xmlns:cc="http://creativecommons.org/ns#"
   xmlns:rdf="http://www.w3.org/1999/02/22-rdf-syntax-ns#"
   xmlns:svg="http://www.w3.org/2000/svg"
   xmlns="http://www.w3.org/2000/svg"
   xmlns:sodipodi="http://sodipodi.sourceforge.net/DTD/sodipodi-0.dtd"
   xmlns:inkscape="http://www.inkscape.org/namespaces/inkscape"
   id="svg-source"
   height="31.752001"
   version="1.1"
   inkscape:version="0.48.2 r9819"
   width="32.000999"
   sodipodi:docname="Machine.svg"
   inkscape:export-filename="D:\dev\git\occiware\ecore\clouddesigner\org.occiware.clouddesigner.occi.docker.design\images\Machine.png"
   inkscape:export-xdpi="90"
   inkscape:export-ydpi="90">
  <metadata
     id="metadata14">
    <rdf:RDF>
      <cc:Work
         rdf:about="">
        <dc:format>image/svg+xml</dc:format>
        <dc:type
           rdf:resource="http://purl.org/dc/dcmitype/StillImage" />
        <dc:title></dc:title>
      </cc:Work>
    </rdf:RDF>
  </metadata>
  <defs
     id="defs12" />
  <sodipodi:namedview
     pagecolor="#ffffff"
     bordercolor="#666666"
     borderopacity="1"
     objecttolerance="10"
     gridtolerance="10"
     guidetolerance="10"
     inkscape:pageopacity="0"
     inkscape:pageshadow="2"
     inkscape:window-width="718"
     inkscape:window-height="480"
     id="namedview10"
     showgrid="false"
     fit-margin-top="0"
     fit-margin-left="0"
     fit-margin-right="0"
     fit-margin-bottom="0"
     inkscape:zoom="0.22425739"
     inkscape:cx="372.04724"
     inkscape:cy="-494.30509"
     inkscape:window-x="0"
     inkscape:window-y="0"
     inkscape:window-maximized="0"
     inkscape:current-layer="svg-source" />
  <g
     id="desktop"
     data-iconmelon="80 icons pack:cf7f786fa2e9767e6d9a9cc6908a1944"
     transform="translate(0,-0.124)">
    <g
       id="g4">
      <g
         id="g6">
        <path
           d="M 27.65,0.124 H 4.35 C 1.952,0.124 0,2.075 0,4.473 v 14.446 c 0,2.398 1.952,4.349 4.35,4.349 h 8.776 v 4.531 h -7.98 c -1.126,0 -2.038,0.913 -2.038,2.039 0,1.125 0.912,2.038 2.038,2.038 h 21.708 c 1.127,0 2.04,-0.913 2.04,-2.038 0,-1.126 -0.913,-2.039 -2.04,-2.039 h -7.979 v -4.531 h 8.776 c 2.398,0 4.35,-1.951 4.35,-4.349 V 4.473 C 32,2.075 30.049,0.124 27.65,0.124 m 1.865,18.795 c 0,1.027 -0.836,1.864 -1.864,1.864 H 4.35 c -1.027,0 -1.863,-0.836 -1.863,-1.864 V 4.473 c 0,-1.027 0.836,-1.864 1.863,-1.864 h 23.3 c 1.028,0 1.864,0.836 1.864,1.864 v 14.446 z"
           id="path8"
           inkscape:connector-curvature="0" />
      </g>
    </g>
  </g>
</svg>
