<?xml version="1.0" encoding="UTF-8" standalone="no"?>
<!DOCTYPE svg PUBLIC "-//W3C//DTD SVG 1.1//EN" "http://www.w3.org/Graphics/SVG/1.1/DTD/svg11.dtd">
<svg version="1.1" xmlns="http://www.w3.org/2000/svg" xmlns:xlink="http://www.w3.org/1999/xlink" preserveAspectRatio="xMidYMid meet" viewBox="99.67499999999998 16.2375 17.980000000000004 21.00000000000001"><defs><path d="M108.88 33.32L108.98 33.36L109.06 33.41L109.14 33.48L109.21 33.56L109.26 33.65L109.3 33.74L109.33 33.85L109.34 33.95L109.34 35.9L116.99 35.9L117.1 35.91L117.2 35.93L117.3 35.97L117.38 36.03L117.46 36.09L117.53 36.17L117.58 36.26L117.62 36.36L117.65 36.46L117.65 36.57L117.65 36.68L117.62 36.78L117.58 36.87L117.53 36.96L117.46 37.04L117.38 37.11L117.29 37.16L117.2 37.2L117.09 37.23L116.98 37.24L100.35 37.24L100.24 37.23L100.13 37.2L100.04 37.16L99.95 37.11L99.87 37.04L99.8 36.96L99.75 36.87L99.71 36.78L99.68 36.68L99.67 36.57L99.68 36.46L99.71 36.36L99.75 36.26L99.8 36.17L99.87 36.09L99.95 36.03L100.04 35.97L100.13 35.93L100.24 35.91L100.35 35.9L108 35.9L108 33.95L108.01 33.85L108.03 33.74L108.07 33.65L108.13 33.56L108.2 33.48L108.27 33.41L108.36 33.36L108.46 33.32L108.56 33.29L108.67 33.28L108.78 33.29L108.88 33.32ZM114.82 16.35L115.15 16.49L115.44 16.68L115.71 16.9L115.94 17.17L116.12 17.47L116.26 17.79L116.35 18.14L116.38 18.51L116.38 20.35L116.37 20.54L116.34 20.72L116.31 20.9L116.25 21.08L116.19 21.25L116.11 21.41L116.02 21.57L115.92 21.71L115.8 21.85L115.68 21.98L115.8 22.11L115.92 22.25L116.02 22.39L116.11 22.55L116.19 22.71L116.25 22.88L116.31 23.06L116.34 23.24L116.37 23.42L116.38 23.61L116.38 25.45L116.37 25.63L116.35 25.81L116.31 25.99L116.26 26.16L116.2 26.33L116.13 26.49L116.04 26.64L115.94 26.78L115.84 26.92L115.72 27.05L115.83 27.17L115.94 27.31L116.04 27.45L116.12 27.6L116.2 27.76L116.26 27.93L116.31 28.1L116.35 28.27L116.37 28.46L116.38 28.64L116.38 30.48L116.35 30.84L116.26 31.19L116.12 31.52L115.94 31.82L115.71 32.08L115.44 32.31L115.15 32.49L114.82 32.63L114.47 32.72L114.1 32.75L103.23 32.75L102.87 32.72L102.52 32.63L102.19 32.49L101.89 32.31L101.63 32.08L101.4 31.82L101.22 31.52L101.08 31.19L100.99 30.84L100.96 30.47L100.96 28.63L100.97 28.45L100.99 28.27L101.03 28.09L101.08 27.92L101.14 27.76L101.21 27.6L101.3 27.45L101.39 27.3L101.5 27.17L101.62 27.04L101.5 26.91L101.4 26.78L101.3 26.63L101.21 26.48L101.14 26.32L101.08 26.16L101.03 25.99L100.99 25.81L100.97 25.63L100.96 25.44L100.96 23.61L100.97 23.42L100.99 23.23L101.03 23.05L101.08 22.88L101.15 22.71L101.23 22.55L101.32 22.39L101.42 22.25L101.53 22.11L101.66 21.98L101.53 21.85L101.42 21.71L101.32 21.57L101.23 21.41L101.15 21.25L101.08 21.08L101.03 20.9L100.99 20.72L100.97 20.54L100.96 20.35L100.96 18.51L100.99 18.14L101.08 17.79L101.22 17.47L101.4 17.17L101.63 16.9L101.89 16.68L102.19 16.49L102.52 16.35L102.87 16.27L103.23 16.24L114.1 16.24L114.47 16.27L114.82 16.35ZM103.02 27.74L102.89 27.78L102.76 27.84L102.65 27.91L102.55 28.01L102.46 28.11L102.4 28.23L102.34 28.36L102.31 28.5L102.3 28.64L102.3 30.48L102.31 30.63L102.35 30.77L102.41 30.91L102.48 31.03L102.57 31.14L102.68 31.23L102.8 31.3L102.94 31.36L103.08 31.4L103.23 31.41L114.1 31.41L114.21 31.4L114.31 31.37L114.4 31.32L114.5 31.26L114.59 31.18L114.69 31.07L114.78 30.95L114.86 30.81L114.95 30.65L115.03 30.48L115.03 28.64L115.02 28.5L114.99 28.36L114.94 28.23L114.87 28.12L114.78 28.01L114.68 27.92L114.57 27.84L114.45 27.78L114.32 27.74L114.18 27.72L103.16 27.72L103.02 27.74ZM103.8 29.89L103.8 29.22L105.67 29.22L105.67 29.89L103.8 29.89ZM103.08 22.69L102.94 22.72L102.8 22.78L102.68 22.86L102.57 22.95L102.48 23.06L102.41 23.18L102.35 23.31L102.31 23.46L102.3 23.61L102.3 25.44L102.31 25.59L102.34 25.73L102.4 25.85L102.46 25.97L102.55 26.08L102.65 26.17L102.76 26.25L102.89 26.31L103.02 26.35L103.16 26.37L114.18 26.37L114.32 26.35L114.45 26.31L114.58 26.25L114.69 26.17L114.79 26.08L114.87 25.97L114.94 25.85L114.99 25.73L115.02 25.59L115.03 25.44L115.03 23.61L115.02 23.46L114.99 23.31L114.93 23.18L114.86 23.06L114.76 22.95L114.65 22.86L114.53 22.78L114.4 22.72L114.25 22.69L114.1 22.68L103.23 22.68L103.08 22.69ZM103.8 24.86L103.8 24.19L105.67 24.19L105.67 24.86L103.8 24.86ZM103.13 17.59L103.03 17.61L102.93 17.66L102.84 17.73L102.74 17.81L102.65 17.91L102.56 18.03L102.47 18.17L102.39 18.33L102.3 18.51L102.3 20.35L102.31 20.5L102.35 20.64L102.41 20.77L102.48 20.9L102.57 21L102.68 21.1L102.8 21.17L102.94 21.23L103.08 21.26L103.23 21.28L114.1 21.28L114.25 21.26L114.4 21.23L114.53 21.17L114.65 21.1L114.76 21L114.86 20.9L114.93 20.77L114.99 20.64L115.02 20.5L115.03 20.35L115.03 18.51L115.02 18.36L114.99 18.21L114.93 18.08L114.86 17.96L114.76 17.85L114.65 17.76L114.53 17.68L114.4 17.62L114.25 17.59L114.1 17.58L103.23 17.58L103.13 17.59ZM103.8 19.76L103.8 19.09L105.67 19.09L105.67 19.76L103.8 19.76Z" id="a3mJCnnrZ"></path></defs><g visibility="inherit"><g visibility="inherit"><use xlink:href="#a3mJCnnrZ" opacity="1" fill="#333333" fill-opacity="1"></use><g><use xlink:href="#a3mJCnnrZ" opacity="1" fill-opacity="0" stroke="#000000" stroke-width="1" stroke-opacity="0"></use></g></g></g></svg>